<svg width="1280" height="900" viewBox="0 0 1280 900" fill="none" xmlns="http://www.w3.org/2000/svg">
  <rect width="1280" height="900" rx="36" fill="#0B1020"/>
  <rect x="36" y="36" width="1208" height="828" rx="28" fill="#111827" stroke="#1F2937" stroke-width="2"/>
  <rect x="72" y="72" width="240" height="756" rx="24" fill="#0F172A"/>
  <rect x="104" y="112" width="124" height="18" rx="9" fill="#10B981"/>
  <rect x="104" y="160" width="176" height="14" rx="7" fill="#334155"/>
  <rect x="104" y="204" width="160" height="14" rx="7" fill="#334155"/>
  <rect x="104" y="248" width="188" height="14" rx="7" fill="#334155"/>
  <rect x="96" y="328" width="192" height="64" rx="18" fill="#10B981" fill-opacity="0.12" stroke="#10B981" stroke-opacity="0.28"/>
  <rect x="120" y="348" width="96" height="12" rx="6" fill="#10B981"/>
  <rect x="120" y="370" width="132" height="10" rx="5" fill="#94A3B8"/>
  <rect x="96" y="416" width="192" height="64" rx="18" fill="#0B1020" stroke="#1F2937"/>
  <rect x="120" y="436" width="110" height="12" rx="6" fill="#E5E7EB"/>
  <rect x="120" y="458" width="104" height="10" rx="5" fill="#64748B"/>
  <rect x="96" y="504" width="192" height="64" rx="18" fill="#0B1020" stroke="#1F2937"/>
  <rect x="120" y="524" width="90" height="12" rx="6" fill="#E5E7EB"/>
  <rect x="120" y="546" width="128" height="10" rx="5" fill="#64748B"/>
  <rect x="348" y="72" width="860" height="92" rx="22" fill="#0F172A"/>
  <rect x="388" y="106" width="224" height="18" rx="9" fill="#F8FAFC"/>
  <rect x="388" y="132" width="170" height="12" rx="6" fill="#64748B"/>
  <rect x="1008" y="102" width="156" height="32" rx="16" fill="#10B981"/>
  <rect x="348" y="196" width="860" height="196" rx="28" fill="#0F172A"/>
  <rect x="388" y="232" width="244" height="16" rx="8" fill="#F8FAFC"/>
  <rect x="388" y="258" width="192" height="12" rx="6" fill="#94A3B8"/>
  <rect x="388" y="304" width="780" height="28" rx="14" fill="#0B1020"/>
  <rect x="388" y="304" width="548" height="28" rx="14" fill="#10B981"/>
  <rect x="388" y="348" width="160" height="10" rx="5" fill="#94A3B8"/>
  <rect x="576" y="348" width="160" height="10" rx="5" fill="#94A3B8"/>
  <rect x="764" y="348" width="160" height="10" rx="5" fill="#94A3B8"/>
  <rect x="952" y="348" width="160" height="10" rx="5" fill="#94A3B8"/>
  <rect x="348" y="424" width="272" height="188" rx="24" fill="#0F172A"/>
  <rect x="652" y="424" width="272" height="188" rx="24" fill="#0F172A"/>
  <rect x="936" y="424" width="272" height="188" rx="24" fill="#0F172A"/>
  <rect x="380" y="456" width="124" height="12" rx="6" fill="#94A3B8"/>
  <rect x="380" y="486" width="124" height="42" rx="21" fill="#10B981"/>
  <rect x="380" y="546" width="196" height="10" rx="5" fill="#334155"/>
  <rect x="380" y="566" width="152" height="10" rx="5" fill="#334155"/>
  <rect x="684" y="456" width="124" height="12" rx="6" fill="#94A3B8"/>
  <circle cx="788" cy="522" r="48" fill="#38BDF8" fill-opacity="0.18"/>
  <path d="M788 480C811.196 480 830 498.804 830 522C830 545.196 811.196 564 788 564C764.804 564 746 545.196 746 522C746 498.804 764.804 480 788 480Z" stroke="#38BDF8" stroke-width="18"/>
  <path d="M788 480C811.196 480 830 498.804 830 522" stroke="#10B981" stroke-width="18" stroke-linecap="round"/>
  <rect x="684" y="588" width="164" height="10" rx="5" fill="#334155"/>
  <rect x="968" y="456" width="136" height="12" rx="6" fill="#94A3B8"/>
  <rect x="968" y="490" width="208" height="18" rx="9" fill="#0B1020"/>
  <rect x="968" y="520" width="208" height="18" rx="9" fill="#0B1020"/>
  <rect x="968" y="550" width="208" height="18" rx="9" fill="#0B1020"/>
  <rect x="986" y="494" width="96" height="10" rx="5" fill="#F8FAFC"/>
  <rect x="1088" y="494" width="70" height="10" rx="5" fill="#10B981"/>
  <rect x="986" y="524" width="84" height="10" rx="5" fill="#F8FAFC"/>
  <rect x="1088" y="524" width="54" height="10" rx="5" fill="#38BDF8"/>
  <rect x="986" y="554" width="74" height="10" rx="5" fill="#F8FAFC"/>
  <rect x="1088" y="554" width="46" height="10" rx="5" fill="#F59E0B"/>
  <rect x="348" y="644" width="860" height="184" rx="28" fill="#0F172A"/>
  <rect x="388" y="680" width="156" height="12" rx="6" fill="#94A3B8"/>
  <rect x="388" y="718" width="780" height="20" rx="10" fill="#0B1020"/>
  <rect x="388" y="756" width="780" height="20" rx="10" fill="#0B1020"/>
  <rect x="388" y="794" width="780" height="20" rx="10" fill="#0B1020"/>
  <rect x="404" y="723" width="210" height="10" rx="5" fill="#E5E7EB"/>
  <rect x="1040" y="723" width="98" height="10" rx="5" fill="#10B981"/>
  <rect x="404" y="761" width="184" height="10" rx="5" fill="#E5E7EB"/>
  <rect x="1040" y="761" width="80" height="10" rx="5" fill="#38BDF8"/>
  <rect x="404" y="799" width="164" height="10" rx="5" fill="#E5E7EB"/>
  <rect x="1040" y="799" width="72" height="10" rx="5" fill="#F59E0B"/>
</svg>
